<svg height="512pt" viewBox="0 0 512 512" width="512pt" xmlns="http://www.w3.org/2000/svg" fill="#5f6368"><path d="m357 101c-85.46875 0-155 69.53125-155 155s69.53125 155 155 155 155-69.53125 155-155-69.53125-155-155-155zm0 140c24.8125 0 45 20.1875 45 45 0 19.554688-12.539062 36.226562-30 42.421875v7.578125c0 8.285156-6.714844 15-15 15s-15-6.714844-15-15v-5h-15c-8.285156 0-15-6.714844-15-15s6.714844-15 15-15h30c8.269531 0 15-6.730469 15-15s-6.730469-15-15-15c-24.8125 0-45-20.1875-45-45 0-19.554688 12.539062-36.226562 30-42.421875v-7.578125c0-8.285156 6.714844-15 15-15s15 6.714844 15 15v5h15c8.285156 0 15 6.714844 15 15s-6.714844 15-15 15h-30c-8.269531 0-15 6.730469-15 15s6.730469 15 15 15zm0 0"/><path d="m135 0h-60c-41.355469 0-75 33.644531-75 75v362c0 41.355469 33.644531 75 75 75h60c35.839844 0 65-29.160156 65-65v-60c0-35.839844-29.160156-65-65-65h-10c-2.757812 0-5-2.242188-5-5v-122c0-2.757812 2.242188-5 5-5h10c35.839844 0 65-29.160156 65-65v-60c0-35.839844-29.160156-65-65-65zm0 0"/></svg>
